<svg width="120" height="17" viewBox="0 0 120 17" fill="none" xmlns="http://www.w3.org/2000/svg">
<path d="M35.491 3.965V13H34.009V6.812L31.253 13H30.226L27.457 6.812V13H25.975V3.965H27.574L30.746 11.05L33.905 3.965H35.491ZM40.0459 13.117C39.3699 13.117 38.7589 12.9653 38.2129 12.662C37.6669 12.35 37.2379 11.9167 36.9259 11.362C36.6139 10.7987 36.4579 10.1487 36.4579 9.412C36.4579 8.684 36.6182 8.03833 36.9389 7.475C37.2595 6.91167 37.6972 6.47833 38.2519 6.175C38.8065 5.87167 39.4262 5.72 40.1109 5.72C40.7955 5.72 41.4152 5.87167 41.9699 6.175C42.5245 6.47833 42.9622 6.91167 43.2829 7.475C43.6035 8.03833 43.7639 8.684 43.7639 9.412C43.7639 10.14 43.5992 10.7857 43.2699 11.349C42.9405 11.9123 42.4899 12.35 41.9179 12.662C41.3545 12.9653 40.7305 13.117 40.0459 13.117ZM40.0459 11.83C40.4272 11.83 40.7825 11.739 41.1119 11.557C41.4499 11.375 41.7229 11.102 41.9309 10.738C42.1389 10.374 42.2429 9.932 42.2429 9.412C42.2429 8.892 42.1432 8.45433 41.9439 8.099C41.7445 7.735 41.4802 7.462 41.1509 7.28C40.8215 7.098 40.4662 7.007 40.0849 7.007C39.7035 7.007 39.3482 7.098 39.0189 7.28C38.6982 7.462 38.4425 7.735 38.2519 8.099C38.0612 8.45433 37.9659 8.892 37.9659 9.412C37.9659 10.1833 38.1609 10.7813 38.5509 11.206C38.9495 11.622 39.4479 11.83 40.0459 11.83ZM47.4979 11.674L49.5259 5.837H51.0989L48.3689 13H46.6009L43.8839 5.837H45.4699L47.4979 11.674ZM52.4731 4.888C52.2045 4.888 51.9791 4.797 51.7971 4.615C51.6151 4.433 51.5241 4.20767 51.5241 3.939C51.5241 3.67033 51.6151 3.445 51.7971 3.263C51.9791 3.081 52.2045 2.99 52.4731 2.99C52.7331 2.99 52.9541 3.081 53.1361 3.263C53.3181 3.445 53.4091 3.67033 53.4091 3.939C53.4091 4.20767 53.3181 4.433 53.1361 4.615C52.9541 4.797 52.7331 4.888 52.4731 4.888ZM53.2011 5.837V13H51.7191V5.837H53.2011ZM61.2119 9.243C61.2119 9.51167 61.1945 9.75433 61.1599 9.971H55.6869C55.7302 10.543 55.9425 11.0023 56.3239 11.349C56.7052 11.6957 57.1732 11.869 57.7279 11.869C58.5252 11.869 59.0885 11.5353 59.4179 10.868H61.0169C60.8002 11.5267 60.4059 12.0683 59.8339 12.493C59.2705 12.909 58.5685 13.117 57.7279 13.117C57.0432 13.117 56.4279 12.9653 55.8819 12.662C55.3445 12.35 54.9199 11.9167 54.6079 11.362C54.3045 10.7987 54.1529 10.1487 54.1529 9.412C54.1529 8.67533 54.3002 8.02967 54.5949 7.475C54.8982 6.91167 55.3185 6.47833 55.8559 6.175C56.4019 5.87167 57.0259 5.72 57.7279 5.72C58.4039 5.72 59.0062 5.86733 59.5349 6.162C60.0635 6.45667 60.4752 6.87267 60.7699 7.41C61.0645 7.93867 61.2119 8.54967 61.2119 9.243ZM59.6649 8.775C59.6562 8.229 59.4612 7.79133 59.0799 7.462C58.6985 7.13267 58.2262 6.968 57.6629 6.968C57.1515 6.968 56.7139 7.13267 56.3499 7.462C55.9859 7.78267 55.7692 8.22033 55.6999 8.775H59.6649ZM64.7703 13.117C64.207 13.117 63.7 13.0173 63.2493 12.818C62.8073 12.61 62.4563 12.3327 62.1963 11.986C61.9363 11.6307 61.7976 11.2363 61.7803 10.803H63.3143C63.3403 11.1063 63.4833 11.362 63.7433 11.57C64.012 11.7693 64.3456 11.869 64.7443 11.869C65.1603 11.869 65.481 11.791 65.7063 11.635C65.9403 11.4703 66.0573 11.2623 66.0573 11.011C66.0573 10.7423 65.9273 10.543 65.6673 10.413C65.416 10.283 65.013 10.14 64.4583 9.984C63.921 9.83667 63.4833 9.69367 63.1453 9.555C62.8073 9.41633 62.5126 9.204 62.2613 8.918C62.0186 8.632 61.8973 8.255 61.8973 7.787C61.8973 7.40567 62.01 7.059 62.2353 6.747C62.4606 6.42633 62.7813 6.175 63.1973 5.993C63.622 5.811 64.1073 5.72 64.6533 5.72C65.468 5.72 66.1223 5.928 66.6163 6.344C67.119 6.75133 67.3876 7.31033 67.4223 8.021H65.9403C65.9143 7.70033 65.7843 7.44467 65.5503 7.254C65.3163 7.06333 65 6.968 64.6013 6.968C64.2113 6.968 63.9123 7.04167 63.7043 7.189C63.4963 7.33633 63.3923 7.53133 63.3923 7.774C63.3923 7.96467 63.4616 8.125 63.6003 8.255C63.739 8.385 63.908 8.489 64.1073 8.567C64.3066 8.63633 64.6013 8.72733 64.9913 8.84C65.5113 8.97867 65.936 9.12167 66.2653 9.269C66.6033 9.40767 66.8936 9.61567 67.1363 9.893C67.379 10.1703 67.5046 10.5387 67.5133 10.998C67.5133 11.4053 67.4006 11.7693 67.1753 12.09C66.95 12.4107 66.6293 12.662 66.2133 12.844C65.806 13.026 65.325 13.117 64.7703 13.117ZM76.3276 8.359C76.8129 8.44567 77.2246 8.70133 77.5626 9.126C77.9006 9.55067 78.0696 10.0317 78.0696 10.569C78.0696 11.0283 77.9483 11.4443 77.7056 11.817C77.4716 12.181 77.1293 12.4713 76.6786 12.688C76.2279 12.896 75.7036 13 75.1056 13H71.4916V3.965H74.9366C75.5519 3.965 76.0806 4.069 76.5226 4.277C76.9646 4.485 77.2983 4.76667 77.5236 5.122C77.7489 5.46867 77.8616 5.85867 77.8616 6.292C77.8616 6.812 77.7229 7.24533 77.4456 7.592C77.1683 7.93867 76.7956 8.19433 76.3276 8.359ZM72.9736 7.761H74.8066C75.2919 7.761 75.6689 7.65267 75.9376 7.436C76.2149 7.21067 76.3536 6.89 76.3536 6.474C76.3536 6.06667 76.2149 5.75033 75.9376 5.525C75.6689 5.291 75.2919 5.174 74.8066 5.174H72.9736V7.761ZM74.9756 11.791C75.4783 11.791 75.8726 11.6697 76.1586 11.427C76.4446 11.1843 76.5876 10.8463 76.5876 10.413C76.5876 9.971 76.4359 9.62 76.1326 9.36C75.8293 9.1 75.4263 8.97 74.9236 8.97H72.9736V11.791H74.9756ZM80.6621 6.877C80.8787 6.513 81.1647 6.23133 81.5201 6.032C81.8841 5.824 82.3131 5.72 82.8071 5.72V7.254H82.4301C81.8494 7.254 81.4074 7.40133 81.1041 7.696C80.8094 7.99067 80.6621 8.502 80.6621 9.23V13H79.1801V5.837H80.6621V6.877ZM86.7763 13.117C86.1003 13.117 85.4893 12.9653 84.9433 12.662C84.3973 12.35 83.9683 11.9167 83.6563 11.362C83.3443 10.7987 83.1883 10.1487 83.1883 9.412C83.1883 8.684 83.3487 8.03833 83.6693 7.475C83.99 6.91167 84.4277 6.47833 84.9823 6.175C85.537 5.87167 86.1567 5.72 86.8413 5.72C87.526 5.72 88.1457 5.87167 88.7003 6.175C89.255 6.47833 89.6927 6.91167 90.0133 7.475C90.334 8.03833 90.4943 8.684 90.4943 9.412C90.4943 10.14 90.3297 10.7857 90.0003 11.349C89.671 11.9123 89.2203 12.35 88.6483 12.662C88.085 12.9653 87.461 13.117 86.7763 13.117ZM86.7763 11.83C87.1577 11.83 87.513 11.739 87.8423 11.557C88.1803 11.375 88.4533 11.102 88.6613 10.738C88.8693 10.374 88.9733 9.932 88.9733 9.412C88.9733 8.892 88.8737 8.45433 88.6743 8.099C88.475 7.735 88.2107 7.462 87.8813 7.28C87.552 7.098 87.1967 7.007 86.8153 7.007C86.434 7.007 86.0787 7.098 85.7493 7.28C85.4287 7.462 85.173 7.735 84.9823 8.099C84.7917 8.45433 84.6963 8.892 84.6963 9.412C84.6963 10.1833 84.8913 10.7813 85.2813 11.206C85.68 11.622 86.1783 11.83 86.7763 11.83ZM101.079 5.837L98.8564 13H97.2964L95.8534 7.709L94.4104 13H92.8504L90.6144 5.837H92.1224L93.6174 11.596L95.1384 5.837H96.6854L98.1414 11.57L99.6234 5.837H101.079ZM104.287 13.117C103.724 13.117 103.217 13.0173 102.766 12.818C102.324 12.61 101.973 12.3327 101.713 11.986C101.453 11.6307 101.314 11.2363 101.297 10.803H102.831C102.857 11.1063 103 11.362 103.26 11.57C103.529 11.7693 103.862 11.869 104.261 11.869C104.677 11.869 104.998 11.791 105.223 11.635C105.457 11.4703 105.574 11.2623 105.574 11.011C105.574 10.7423 105.444 10.543 105.184 10.413C104.933 10.283 104.53 10.14 103.975 9.984C103.438 9.83667 103 9.69367 102.662 9.555C102.324 9.41633 102.029 9.204 101.778 8.918C101.535 8.632 101.414 8.255 101.414 7.787C101.414 7.40567 101.527 7.059 101.752 6.747C101.977 6.42633 102.298 6.175 102.714 5.993C103.139 5.811 103.624 5.72 104.17 5.72C104.985 5.72 105.639 5.928 106.133 6.344C106.636 6.75133 106.904 7.31033 106.939 8.021H105.457C105.431 7.70033 105.301 7.44467 105.067 7.254C104.833 7.06333 104.517 6.968 104.118 6.968C103.728 6.968 103.429 7.04167 103.221 7.189C103.013 7.33633 102.909 7.53133 102.909 7.774C102.909 7.96467 102.978 8.125 103.117 8.255C103.256 8.385 103.425 8.489 103.624 8.567C103.823 8.63633 104.118 8.72733 104.508 8.84C105.028 8.97867 105.453 9.12167 105.782 9.269C106.12 9.40767 106.41 9.61567 106.653 9.893C106.896 10.1703 107.021 10.5387 107.03 10.998C107.03 11.4053 106.917 11.7693 106.692 12.09C106.467 12.4107 106.146 12.662 105.73 12.844C105.323 13.026 104.842 13.117 104.287 13.117ZM114.696 9.243C114.696 9.51167 114.679 9.75433 114.644 9.971H109.171C109.215 10.543 109.427 11.0023 109.808 11.349C110.19 11.6957 110.658 11.869 111.212 11.869C112.01 11.869 112.573 11.5353 112.902 10.868H114.501C114.285 11.5267 113.89 12.0683 113.318 12.493C112.755 12.909 112.053 13.117 111.212 13.117C110.528 13.117 109.912 12.9653 109.366 12.662C108.829 12.35 108.404 11.9167 108.092 11.362C107.789 10.7987 107.637 10.1487 107.637 9.412C107.637 8.67533 107.785 8.02967 108.079 7.475C108.383 6.91167 108.803 6.47833 109.34 6.175C109.886 5.87167 110.51 5.72 111.212 5.72C111.888 5.72 112.491 5.86733 113.019 6.162C113.548 6.45667 113.96 6.87267 114.254 7.41C114.549 7.93867 114.696 8.54967 114.696 9.243ZM113.149 8.775C113.141 8.229 112.946 7.79133 112.564 7.462C112.183 7.13267 111.711 6.968 111.147 6.968C110.636 6.968 110.198 7.13267 109.834 7.462C109.47 7.78267 109.254 8.22033 109.184 8.775H113.149ZM117.137 6.877C117.353 6.513 117.639 6.23133 117.995 6.032C118.359 5.824 118.788 5.72 119.282 5.72V7.254H118.905C118.324 7.254 117.882 7.40133 117.579 7.696C117.284 7.99067 117.137 8.502 117.137 9.23V13H115.655V5.837H117.137V6.877Z" fill="white"/>
<path d="M11.4238 10.6224L14.0199 11.6835C14.5129 11.8846 15.0526 11.5227 15.0526 10.99V6.2874C15.0526 5.75473 14.5129 5.39206 14.0199 5.59323L11.4238 6.65431" stroke="white" stroke-width="1.0625" stroke-linecap="round" stroke-linejoin="round"/>
<path fill-rule="evenodd" clip-rule="evenodd" d="M4.46566 13.5581H8.9062C10.4532 13.5581 11.4236 12.5501 11.4236 11.1228V6.15388C11.4236 4.72659 10.4575 3.71863 8.9062 3.71863H4.46566C2.9137 3.71863 1.94824 4.72659 1.94824 6.15388V11.1228C1.94824 12.5501 2.9137 13.5581 4.46566 13.5581Z" stroke="white" stroke-width="1.0625" stroke-linecap="round" stroke-linejoin="round"/>
</svg>